# xmcd CD database file
#
# Track frame offsets:
#	150
#	14940
#	36986
#	53466
#	69061
#	80639
#	103102
#	121085
#	134252
#	148810
#	162864
#	179795
#	191388
#
# Disc length: 2799 seconds
#
# Revision: 0
# Processed by: cddbd v1.5.2PL0 Copyright (c) Steve Scherf et al.
# Submitted via: CDex 1.70beta2
#
DISCID=b60aed0d
DTITLE=Keb Mo - Just Like You
DYEAR=1996
DGENRE=Blues
TTITLE0=That's Not Love
TTITLE1=Perpetual Blues Machine
TTITLE2=More Than One Way Home
TTITLE3=I'm On Your Side
TTITLE4=Just Like You
TTITLE5=You Can Love Yourself
TTITLE6=Dangerous Mood
TTITLE7=The Action
TTITLE8=Hand It Over
TTITLE9=Standin' At The Station
TTITLE10=Momma, Where's My Daddy
TTITLE11=Last Fair Deal Gone Down
TTITLE12=Lullaby Baby Blues
EXTD=YEAR: 1996
EXTT0=
EXTT1=
EXTT2=
EXTT3=
EXTT4=
EXTT5=
EXTT6=
EXTT7=
EXTT8=
EXTT9=
EXTT10=
EXTT11=
EXTT12=
PLAYORDER=
